<?xml version="1.0" encoding="UTF-8"?><svg id="Layer_2" xmlns="http://www.w3.org/2000/svg" viewBox="0 0 303.31 77.57"><defs><style>.cls-1{fill:#98000c;}.cls-2{fill:#fff;}.cls-3{fill:#039;}.cls-4{fill:none;}.cls-5{fill:#1e2a45;}.cls-6{fill:#c83602;}.cls-7{fill:#fc0;}</style></defs><g id="Layer_1-2"><path class="cls-4" d="m67.11,72.09c-.32,0-.59.12-.8.37-.22.24-.33.59-.33,1.05s.11.81.33,1.05c.22.24.48.37.8.37s.59-.12.8-.37c.22-.24.32-.6.32-1.06s-.11-.8-.32-1.04c-.22-.24-.48-.37-.8-.37Z"/><path class="cls-4" d="m40.43,72.09c-.32,0-.59.12-.8.37-.22.24-.33.59-.33,1.05s.11.81.33,1.05c.22.24.48.37.8.37s.59-.12.8-.37c.22-.24.32-.6.32-1.06s-.11-.8-.32-1.04c-.22-.24-.48-.37-.8-.37Z"/><path class="cls-4" d="m54.01,61.42c-.32,0-.59.12-.8.37-.22.24-.33.59-.33,1.05s.11.81.33,1.05c.22.24.48.37.8.37s.59-.12.8-.37c.22-.24.32-.6.32-1.06s-.11-.8-.32-1.04c-.22-.24-.48-.37-.8-.37Z"/><path class="cls-4" d="m63.43,63.33c-.16.11-.24.26-.24.43s.06.32.19.44c.13.12.29.19.49.19.22,0,.43-.07.63-.22.15-.11.24-.24.29-.4.03-.1.05-.3.05-.59v-.24c-.16.05-.4.11-.74.19-.34.07-.56.14-.66.21Z"/><path class="cls-4" d="m9.89,63.94c.19-.23.28-.6.28-1.12,0-.48-.1-.84-.29-1.08-.19-.23-.43-.35-.72-.35s-.55.11-.74.35c-.2.23-.3.57-.3,1.02,0,.52.1.9.31,1.15.21.25.46.37.75.37s.52-.11.71-.34Z"/><path class="cls-4" d="m19.68,72.09c-.32,0-.59.12-.8.36-.22.24-.33.59-.33,1.05s.11.81.33,1.05c.22.24.48.36.8.36s.59-.12.8-.36c.22-.24.32-.6.32-1.06s-.11-.8-.32-1.04c-.22-.24-.48-.36-.8-.36Z"/><path class="cls-4" d="m25.22,72.06c-.3,0-.55.11-.74.35-.2.23-.3.57-.3,1.02,0,.52.1.9.31,1.15.21.25.46.37.75.37s.52-.11.71-.34c.19-.23.28-.6.28-1.12,0-.48-.1-.84-.29-1.08-.19-.23-.43-.35-.72-.35Z"/><path class="cls-4" d="m39.08,63.77c.03-.1.05-.3.05-.59v-.24c-.16.05-.4.11-.74.19-.34.07-.56.14-.66.21-.16.11-.24.26-.24.43s.06.32.19.44c.13.12.29.19.49.19.22,0,.43-.07.63-.22.15-.11.24-.24.29-.4Z"/><path class="cls-4" d="m15.6,62.83c0-.45-.11-.8-.32-1.04-.22-.24-.48-.37-.8-.37s-.59.12-.8.37c-.22.24-.33.59-.33,1.05s.11.81.33,1.05c.22.24.48.37.8.37s.59-.12.8-.37c.22-.24.32-.6.32-1.06Z"/><path class="cls-2" d="m0,52.66h77.53V0H0v52.66ZM1.49,1.44h74.55v49.7H1.49V1.44Z"/><path class="cls-3" d="m76.04,1.44H1.49v49.7h74.55V1.44Zm-23.79,15.96l.6-1.88.6,1.88h1.97l-1.6,1.15.6,1.86-1.57-1.15-1.57,1.15.6-1.86-1.6-1.15h1.97Zm-32.35,8.15h1.97s.6-1.88.6-1.88l.6,1.88h1.97l-1.6,1.15.6,1.86-1.57-1.15-1.57,1.15.6-1.86-1.6-1.15Zm6.33,11.16l-1.57-1.15-1.57,1.15.6-1.86-1.6-1.15h1.97s.6-1.88.6-1.88l.6,1.88h1.97l-1.6,1.15.6,1.86Zm-.6-18.14l.6,1.86-1.57-1.15-1.57,1.15.6-1.86-1.6-1.15h1.97s.6-1.88.6-1.88l.6,1.88h1.97l-1.6,1.15Zm4.38-7.12l.6-1.88.6,1.88h1.97l-1.6,1.15.6,1.86-1.57-1.15-1.57,1.15.6-1.86-1.6-1.15h1.97Zm2.19,31.23l-1.57-1.15-1.57,1.15.6-1.86-1.6-1.15h1.97s.6-1.88.6-1.88l.6,1.88h1.97l-1.6,1.15.6,1.86Zm5.95-33.41l.6-1.88.6,1.88h1.97l-1.6,1.15.6,1.86-1.57-1.15-1.57,1.15.6-1.86-1.6-1.15h1.97Zm2.18,35.58l-1.57-1.15-1.57,1.15.6-1.86-1.6-1.15h1.97s.6-1.88.6-1.88l.6,1.88h1.97l-1.6,1.15.6,1.86Zm8.13-2.16l-1.57-1.15-1.57,1.15.6-1.86-1.6-1.15h1.97s.6-1.88.6-1.88l.6,1.88h1.97l-1.6,1.15.6,1.86Zm-.58-30.08l.6,1.86-1.57-1.15-1.57,1.15.6-1.86-1.6-1.15h1.97s.6-1.88.6-1.88l.6,1.88h1.97l-1.6,1.15Zm6.54,24.11l-1.57-1.15-1.57,1.15.6-1.86-1.6-1.15h1.97s.6-1.88.6-1.88l.6,1.88h1.97l-1.6,1.15.6,1.86Zm2.16-8.18l-1.57-1.15-1.57,1.15.6-1.86-1.6-1.15h1.97s.6-1.88.6-1.88l.6,1.88h1.97l-1.6,1.15.6,1.86Z"/><polygon class="cls-7" points="37.18 12.27 38.75 11.12 40.32 12.27 39.72 10.42 41.32 9.27 39.35 9.27 38.75 7.39 38.15 9.27 36.18 9.27 37.78 10.42 37.18 12.27"/><polygon class="cls-7" points="29.04 14.46 30.61 13.31 32.18 14.46 31.58 12.6 33.18 11.45 31.21 11.45 30.61 9.57 30.01 11.46 28.04 11.45 29.63 12.6 29.04 14.46"/><polygon class="cls-7" points="24.65 15.54 24.05 17.43 22.08 17.42 23.68 18.57 23.08 20.43 24.65 19.28 26.23 20.43 25.63 18.57 27.22 17.42 25.26 17.42 24.65 15.54"/><polygon class="cls-7" points="22.47 27.41 24.04 28.56 23.44 26.7 25.04 25.56 23.07 25.56 22.47 23.67 21.87 25.56 19.9 25.56 21.49 26.7 20.89 28.56 22.47 27.41"/><polygon class="cls-7" points="25.26 33.71 24.65 31.83 24.05 33.71 22.08 33.71 23.68 34.86 23.08 36.72 24.65 35.57 26.23 36.72 25.63 34.86 27.22 33.71 25.26 33.71"/><polygon class="cls-7" points="31.22 39.68 30.62 37.8 30.02 39.68 28.05 39.68 29.65 40.83 29.05 42.68 30.62 41.53 32.19 42.68 31.6 40.83 33.19 39.68 31.22 39.68"/><polygon class="cls-7" points="39.35 41.84 38.75 39.96 38.15 41.84 36.18 41.84 37.78 42.99 37.18 44.85 38.75 43.7 40.32 44.85 39.73 42.99 41.32 41.84 39.35 41.84"/><polygon class="cls-7" points="47.48 39.68 46.88 37.8 46.28 39.68 44.31 39.68 45.91 40.83 45.31 42.68 46.88 41.53 48.46 42.68 47.86 40.83 49.45 39.68 47.48 39.68"/><polygon class="cls-7" points="53.45 33.71 52.85 31.83 52.25 33.71 50.28 33.71 51.88 34.86 51.28 36.72 52.85 35.57 54.42 36.72 53.82 34.86 55.42 33.71 53.45 33.71"/><polygon class="cls-7" points="55.61 25.53 55.01 23.65 54.41 25.54 52.44 25.53 54.04 26.68 53.44 28.54 55.01 27.39 56.58 28.54 55.99 26.68 57.58 25.53 55.61 25.53"/><polygon class="cls-7" points="51.28 20.4 52.85 19.26 54.42 20.4 53.82 18.55 55.42 17.4 53.45 17.4 52.85 15.52 52.25 17.4 50.28 17.4 51.88 18.55 51.28 20.4"/><polygon class="cls-7" points="46.91 9.58 46.3 11.46 44.33 11.46 45.93 12.61 45.33 14.46 46.91 13.31 48.48 14.46 47.88 12.61 49.48 11.46 47.51 11.46 46.91 9.58"/><path class="cls-3" d="m4.71,65.02c.37-.15.66-.39.86-.71.2-.32.3-.66.3-1.03,0-.4-.09-.74-.25-1.01-.17-.27-.4-.49-.7-.65-.3-.16-.76-.31-1.39-.46-.63-.15-1.02-.29-1.18-.42-.13-.11-.19-.24-.19-.39,0-.16.07-.3.2-.39.21-.15.5-.23.88-.23s.63.07.81.21.3.38.35.71l1.29-.06c-.02-.58-.23-1.05-.64-1.4-.4-.35-1.01-.53-1.8-.53-.49,0-.91.07-1.25.22-.35.15-.61.36-.8.64-.18.28-.28.59-.28.91,0,.5.2.93.59,1.28.28.25.76.46,1.45.63.54.13.88.23,1.03.28.22.08.37.17.46.28s.13.23.13.38c0,.24-.11.44-.32.62-.21.17-.52.26-.94.26-.39,0-.7-.1-.93-.3-.23-.2-.38-.51-.46-.92l-1.25.12c.08.71.34,1.25.77,1.63.43.37,1.05.56,1.86.56.55,0,1.01-.08,1.38-.23Z"/><path class="cls-3" d="m9.48,65.25c.54,0,.99-.21,1.37-.64.38-.43.56-1.03.56-1.8s-.19-1.33-.56-1.75c-.37-.42-.83-.63-1.36-.63-.31,0-.59.07-.84.22-.25.15-.45.33-.6.56v-.68h-1.14v6.37h1.22v-2.32c.23.25.45.42.65.52.21.1.44.15.69.15Zm-1.36-2.49c0-.45.1-.79.3-1.02.2-.23.44-.35.74-.35s.53.12.72.35c.19.24.29.59.29,1.08,0,.52-.09.89-.28,1.12-.19.23-.42.34-.71.34s-.55-.12-.75-.37c-.21-.25-.31-.63-.31-1.15Z"/><path class="cls-3" d="m16.18,64.56c.45-.46.68-1.04.68-1.73s-.22-1.26-.67-1.72c-.45-.45-1.02-.68-1.72-.68-.45,0-.86.1-1.23.3-.37.2-.65.49-.85.87-.2.38-.3.77-.3,1.18,0,.53.1.98.3,1.35.2.37.49.65.87.84.38.19.79.29,1.21.29.68,0,1.25-.23,1.7-.69Zm-2.51-.67c-.22-.24-.33-.59-.33-1.05s.11-.81.33-1.05c.22-.24.48-.37.8-.37s.59.12.8.37c.22.24.32.59.32,1.04s-.11.82-.32,1.06c-.22.24-.48.37-.8.37s-.59-.12-.8-.37Z"/><rect class="cls-3" x="17.81" y="58.78" width="1.22" height="6.37"/><path class="cls-3" d="m23.32,64.45v.69h1.13v-4.61h-1.22v1.95c0,.66-.03,1.07-.09,1.24-.06.17-.17.31-.34.42-.16.11-.35.17-.56.17-.18,0-.33-.04-.45-.13-.12-.09-.2-.2-.24-.35-.05-.15-.07-.54-.07-1.19v-2.12h-1.22v2.92c0,.43.06.77.16,1.02.11.25.29.44.53.57.25.14.52.2.83.2s.59-.07.87-.21c.27-.14.49-.34.66-.58Z"/><rect class="cls-3" x="28.64" y="58.78" width="1.22" height="1.13"/><path class="cls-3" d="m27.23,59.73c.08-.08.2-.12.38-.12s.37.02.56.07l.16-.85c-.33-.1-.67-.16-1.02-.16s-.62.06-.84.18c-.22.12-.37.28-.46.47-.08.19-.12.48-.12.87v.35h-.68v.96h.68v3.65h1.22v-3.65h.91v-.96h-.91v-.33c0-.24.04-.39.11-.48Z"/><rect class="cls-3" x="28.64" y="60.53" width="1.22" height="4.61"/><path class="cls-3" d="m33.79,61.48c.12.08.2.19.25.34.05.15.08.47.08.97v2.35h1.22v-2.87c0-.36-.02-.63-.07-.82s-.12-.36-.24-.51c-.11-.15-.28-.27-.51-.37-.22-.1-.47-.15-.74-.15-.61,0-1.12.26-1.52.78v-.68h-1.13v4.61h1.22v-2.09c0-.51.03-.87.09-1.06.06-.19.18-.34.35-.46.17-.12.36-.17.57-.17.17,0,.31.04.42.12Z"/><path class="cls-3" d="m39.22,64.64s.02.07.04.14c.05.16.09.28.12.36h1.21c-.11-.22-.18-.43-.22-.62-.04-.19-.06-.49-.06-.9v-1.42c.01-.53-.04-.89-.15-1.09-.11-.2-.3-.36-.56-.49-.27-.13-.67-.19-1.22-.19-.6,0-1.05.11-1.35.32-.3.21-.52.54-.64.99l1.11.2c.07-.21.17-.36.3-.45.12-.09.29-.13.51-.13.32,0,.54.05.66.15.12.1.17.27.17.5v.12c-.22.09-.62.19-1.19.3-.42.08-.75.18-.97.28-.22.11-.4.26-.52.47-.12.2-.19.44-.19.7,0,.39.14.72.41.98.27.26.65.39,1.12.39.27,0,.52-.05.76-.15.24-.1.46-.25.67-.46Zm-1.55-.44c-.13-.12-.19-.27-.19-.44s.08-.32.24-.43c.1-.07.33-.14.66-.21.34-.07.59-.13.74-.19v.24c0,.29-.02.49-.05.59-.05.16-.14.29-.29.4-.2.14-.41.22-.63.22-.2,0-.36-.06-.49-.19Z"/><path class="cls-3" d="m44.17,61.48c.12.08.2.19.25.34.05.15.08.47.08.97v2.35h1.22v-2.87c0-.36-.02-.63-.07-.82s-.12-.36-.24-.51c-.11-.15-.28-.27-.51-.37-.22-.1-.47-.15-.74-.15-.61,0-1.12.26-1.52.78v-.68h-1.13v4.61h1.22v-2.09c0-.51.03-.87.09-1.06.06-.19.18-.34.35-.46.17-.12.36-.17.57-.17.17,0,.31.04.42.12Z"/><path class="cls-3" d="m49.53,64.05c-.15.13-.34.2-.57.2-.31,0-.56-.11-.74-.34-.18-.23-.28-.61-.28-1.16,0-.49.09-.84.27-1.05.18-.21.42-.32.73-.32.23,0,.41.06.56.18.14.12.24.3.28.54l1.2-.22c-.15-.5-.38-.86-.71-1.11-.33-.24-.78-.36-1.34-.36-.69,0-1.23.21-1.63.64s-.6,1.02-.6,1.78.2,1.34.6,1.77c.4.43.94.64,1.61.64.59,0,1.07-.14,1.42-.42.35-.28.59-.7.72-1.25l-1.2-.2c-.06.32-.16.55-.31.68Z"/><path class="cls-3" d="m54,60.43c-.45,0-.86.1-1.23.3-.37.2-.65.49-.85.87-.2.38-.3.77-.3,1.18,0,.53.1.98.3,1.35.2.37.49.65.87.84.38.19.79.29,1.21.29.68,0,1.25-.23,1.7-.69.45-.46.68-1.04.68-1.73s-.22-1.26-.67-1.72c-.45-.45-1.02-.68-1.72-.68Zm.81,3.46c-.22.24-.48.37-.8.37s-.59-.12-.8-.37c-.22-.24-.33-.59-.33-1.05s.11-.81.33-1.05c.22-.24.48-.37.8-.37s.59.12.8.37c.22.24.32.59.32,1.04s-.11.82-.32,1.06Z"/><path class="cls-3" d="m59.41,62.88c-.05.13-.09.26-.13.39-.02.06-.06.2-.13.39l-.25-.79-.87-2.35h-1.28l1.86,4.61h1.1l1.83-4.61h-1.26l-.88,2.35Z"/><path class="cls-3" d="m64.97,64.78c.05.16.09.28.12.36h1.21c-.11-.22-.18-.43-.22-.62-.04-.19-.06-.49-.06-.9v-1.42c.01-.53-.04-.89-.15-1.09-.11-.2-.3-.36-.56-.49-.27-.13-.67-.19-1.22-.19-.6,0-1.05.11-1.35.32-.3.21-.52.54-.64.99l1.11.2c.07-.21.17-.36.3-.45.12-.09.29-.13.51-.13.32,0,.54.05.66.15.12.1.17.27.17.5v.12c-.22.09-.62.19-1.19.3-.42.08-.75.18-.97.28-.22.11-.4.26-.52.47-.12.2-.19.44-.19.7,0,.39.14.72.41.98.27.26.65.39,1.12.39.27,0,.52-.05.76-.15.24-.1.46-.25.67-.46,0,.02.02.07.04.14Zm-.14-1.61c0,.29-.02.49-.05.59-.05.16-.14.29-.29.4-.2.14-.41.22-.63.22-.2,0-.36-.06-.49-.19-.13-.12-.19-.27-.19-.44s.08-.32.24-.43c.1-.07.33-.14.66-.21.34-.07.59-.13.74-.19v.24Z"/><path class="cls-3" d="m71.43,65.14v-2.87c0-.36-.02-.63-.07-.82-.04-.19-.12-.36-.24-.51-.11-.15-.28-.27-.51-.37-.22-.1-.47-.15-.74-.15-.61,0-1.12.26-1.52.78v-.68h-1.13v4.61h1.22v-2.09c0-.51.03-.87.09-1.06.06-.19.18-.34.35-.46.17-.12.36-.17.57-.17.17,0,.31.04.42.12.12.08.2.19.25.34.05.15.08.47.08.97v2.35h1.22Z"/><polygon class="cls-3" points="75.81 58.67 74.44 58.67 73.84 59.97 74.62 59.97 75.81 58.67"/><path class="cls-3" d="m74.49,63.8l-1.1-3.27h-1.3l1.75,4.62c-.07.26-.18.47-.31.64-.14.17-.35.25-.63.25-.15,0-.33-.02-.52-.06l.11.96c.23.05.46.07.69.07s.44-.02.62-.07c.18-.05.34-.12.46-.21.13-.09.24-.2.33-.34.1-.14.2-.35.31-.62l.29-.8,1.63-4.44h-1.26l-1.08,3.27Z"/><polygon class="cls-3" points="4.05 73.01 7.24 73.01 7.24 71.94 4.05 71.94 4.05 70.53 7.48 70.53 7.48 69.45 2.76 69.45 2.76 75.82 7.6 75.82 7.6 74.74 4.05 74.74 4.05 73.01"/><path class="cls-3" d="m11.63,73.15c0,.66-.03,1.07-.09,1.24-.06.17-.17.31-.34.42-.16.11-.35.17-.56.17-.18,0-.33-.04-.45-.13-.12-.09-.2-.2-.24-.35-.05-.15-.07-.54-.07-1.19v-2.12h-1.22v2.92c0,.43.06.77.16,1.02.11.25.29.44.53.57.25.14.52.2.83.2s.59-.07.87-.21c.27-.14.49-.34.66-.58v.69h1.13v-4.61h-1.22v1.95Z"/><path class="cls-3" d="m15.72,71.25c-.15.1-.33.3-.52.61v-.66h-1.13v4.61h1.22v-1.42c0-.78.03-1.3.1-1.55.07-.25.16-.42.28-.51.12-.09.26-.14.43-.14s.37.07.57.2l.38-1.06c-.26-.15-.53-.23-.8-.23-.2,0-.37.05-.53.15Z"/><polygon class="cls-3" points="21.03 69.34 19.66 69.34 19.06 70.64 19.83 70.64 21.03 69.34"/><path class="cls-3" d="m19.67,71.1c-.45,0-.86.1-1.23.3-.37.2-.65.49-.85.87-.2.38-.3.77-.3,1.18,0,.53.1.98.3,1.35.2.37.49.65.87.84.38.19.79.29,1.21.29.68,0,1.25-.23,1.7-.69.45-.46.68-1.04.68-1.74s-.22-1.26-.67-1.72c-.45-.45-1.02-.68-1.72-.68Zm.81,3.46c-.22.24-.48.36-.8.36s-.59-.12-.8-.36c-.22-.24-.33-.59-.33-1.05s.11-.81.33-1.05c.22-.24.48-.36.8-.36s.59.12.8.36c.22.24.32.59.32,1.04s-.11.82-.32,1.06Z"/><path class="cls-3" d="m25.55,71.1c-.31,0-.59.07-.84.22s-.45.33-.6.56v-.68h-1.14v6.37h1.22v-2.32c.23.25.45.42.65.52.21.1.44.15.69.15.54,0,.99-.21,1.37-.64.38-.43.56-1.03.56-1.8s-.19-1.33-.56-1.75c-.37-.42-.83-.63-1.36-.63Zm.4,3.51c-.19.23-.42.34-.71.34s-.55-.12-.75-.37c-.21-.25-.31-.63-.31-1.15,0-.45.1-.79.3-1.02.2-.23.44-.35.74-.35s.53.12.72.35c.19.24.29.59.29,1.08,0,.52-.09.89-.28,1.12Z"/><path class="cls-3" d="m30.58,72.92c-.65-.15-1.03-.26-1.14-.34-.08-.06-.12-.13-.12-.22,0-.1.05-.18.14-.25.14-.09.37-.13.69-.13.25,0,.45.05.59.14.14.1.23.23.28.41l1.15-.21c-.12-.4-.33-.71-.63-.91-.31-.21-.78-.31-1.41-.31-.66,0-1.15.14-1.47.41-.32.27-.47.61-.47,1.01,0,.44.18.79.55,1.04.26.18.89.38,1.87.59.21.05.35.1.41.16.06.06.09.14.09.23,0,.14-.05.24-.16.33-.16.12-.4.17-.71.17-.29,0-.51-.06-.67-.18-.16-.12-.27-.3-.32-.54l-1.22.19c.11.44.35.78.72,1.04.37.25.86.38,1.49.38.69,0,1.21-.15,1.57-.46.35-.3.53-.67.53-1.09,0-.39-.13-.69-.38-.91-.26-.21-.71-.4-1.36-.54Z"/><polygon class="cls-3" points="37.5 71.2 36 71.2 34.57 72.83 34.57 69.45 33.35 69.45 33.35 75.82 34.57 75.82 34.57 74.34 35.14 73.74 36.3 75.82 37.61 75.82 35.92 72.89 37.5 71.2"/><path class="cls-3" d="m40.43,71.1c-.45,0-.86.1-1.23.3-.37.2-.65.49-.85.87-.2.38-.3.77-.3,1.18,0,.53.1.98.3,1.35.2.37.49.65.87.84.38.19.79.29,1.21.29.68,0,1.25-.23,1.7-.69.45-.46.68-1.04.68-1.73s-.22-1.26-.67-1.72c-.45-.45-1.02-.68-1.72-.68Zm.81,3.46c-.22.24-.48.37-.8.37s-.59-.12-.8-.37c-.22-.24-.33-.59-.33-1.05s.11-.81.33-1.05c.22-.24.48-.37.8-.37s.59.12.8.37c.22.24.32.59.32,1.04s-.11.82-.32,1.06Z"/><path class="cls-3" d="m46.72,73.15c0,.66-.03,1.07-.09,1.24-.06.17-.17.31-.34.42-.16.11-.35.17-.56.17-.18,0-.33-.04-.45-.13-.12-.09-.2-.2-.24-.35-.05-.15-.07-.54-.07-1.19v-2.12h-1.22v2.92c0,.43.05.77.16,1.02.11.25.29.44.53.57.25.14.52.2.83.2s.59-.07.87-.21c.27-.14.49-.34.66-.58v.69h1.13v-4.61h-1.22v1.95Z"/><path class="cls-3" d="m54.62,73.15c0,.66-.03,1.08-.09,1.24-.06.17-.17.31-.34.43-.17.11-.35.17-.56.17-.18,0-.33-.04-.45-.13-.12-.09-.2-.2-.24-.35-.05-.15-.07-.54-.07-1.19v-2.12h-1.22v2.92c0,.43.06.77.17,1.02.11.25.29.44.53.57.25.14.52.2.83.2s.59-.07.87-.21c.27-.14.49-.34.66-.58v.69h1.13v-4.61h-1.22v1.95Z"/><polygon class="cls-3" points="55.1 69.34 53.73 69.34 53.13 70.64 53.9 70.64 55.1 69.34"/><path class="cls-3" d="m60.99,71.62c-.11-.15-.28-.27-.51-.37-.22-.1-.47-.15-.74-.15-.61,0-1.12.26-1.52.78v-.68h-1.13v4.61h1.22v-2.09c0-.51.03-.87.09-1.06.06-.19.18-.34.35-.46.17-.12.36-.17.57-.17.17,0,.31.04.42.12.12.08.2.19.25.34.05.15.08.47.08.97v2.35h1.22v-2.87c0-.36-.02-.63-.07-.82-.04-.19-.12-.36-.24-.51Z"/><rect class="cls-3" x="62.54" y="69.45" width="1.22" height="1.13"/><rect class="cls-3" x="62.54" y="71.2" width="1.22" height="4.61"/><path class="cls-3" d="m67.1,71.1c-.45,0-.86.1-1.23.3-.37.2-.65.49-.85.87-.2.38-.3.77-.3,1.18,0,.53.1.98.3,1.35.2.37.49.65.87.84.38.19.79.29,1.21.29.68,0,1.25-.23,1.7-.69.45-.46.68-1.04.68-1.73s-.22-1.26-.67-1.72c-.45-.45-1.02-.68-1.72-.68Zm.81,3.46c-.22.24-.48.37-.8.37s-.59-.12-.8-.37c-.22-.24-.33-.59-.33-1.05s.11-.81.33-1.05c.22-.24.48-.37.8-.37s.59.12.8.37c.22.24.32.59.32,1.04s-.11.82-.32,1.06Z"/><path class="cls-3" d="m73.39,73.15c0,.66-.03,1.07-.09,1.24-.06.17-.17.31-.34.42-.16.11-.35.17-.56.17-.18,0-.33-.04-.45-.13-.12-.09-.2-.2-.24-.35-.05-.15-.07-.54-.07-1.19v-2.12h-1.22v2.92c0,.43.05.77.16,1.02.11.25.29.44.53.57.25.14.52.2.83.2s.59-.07.87-.21c.27-.14.49-.34.66-.58v.69h1.13v-4.61h-1.22v1.95Z"/><path class="cls-4" d="m140.12,37.74c-.27-.04-.49-.06-.64-.06-.89,0-1.04.59-1.04,1.86s.15,1.84,1.07,1.84c.17,0,.42-.03.61-.15v-3.48Z"/><path class="cls-4" d="m128.09,46.89c-.43,0-1.05.07-1.53.38v8.82c.65.1,1.18.13,1.6.13,2.23,0,2.63-1.5,2.63-4.68s-.4-4.63-2.7-4.63Z"/><path class="cls-4" d="m142.99,40.6c0,.48.25.77.89.77.21,0,.48-.03.7-.16v-1.76c-1.03.11-1.6.48-1.6,1.14Z"/><path class="cls-4" d="m140.48,46.89c-1.83,0-2.25,1.55-2.25,4.66s.43,4.66,2.25,4.66,2.28-1.53,2.28-4.66-.43-4.66-2.28-4.66Z"/><path class="cls-4" d="m153.59,40.6c0,.48.25.77.89.77.21,0,.48-.03.7-.16v-1.76c-1.03.11-1.6.48-1.6,1.14Z"/><path class="cls-4" d="m135.37,39.46c-1.03.11-1.6.48-1.6,1.14,0,.48.25.77.89.77.21,0,.48-.03.7-.16v-1.76Z"/><path class="cls-1" d="m131.94,42.01v-3.68c0-.89-.43-1.33-1.38-1.33-.56,0-1.05.14-1.3.64v-.59h-1v4.96h1v-4.16c.23-.14.52-.17.71-.17.74,0,.96.33.96.96v3.36h1Z"/><path class="cls-1" d="m136.38,42.01v-3.68c0-.86-.54-1.33-1.76-1.33s-1.54.38-1.54.99c.35-.21.83-.31,1.24-.31.74,0,1.05.29,1.05.88v.36c-1.64.17-2.51.85-2.51,1.88,0,.77.45,1.26,1.3,1.26.51,0,.97-.18,1.21-.65v.6h1Zm-1.71-.63c-.64,0-.89-.3-.89-.77,0-.66.57-1.03,1.6-1.14v1.76c-.23.13-.5.16-.7.16Z"/><path class="cls-1" d="m141.11,42.01v-7.04h-.99v2.15c-.31-.08-.67-.12-.94-.12-1.34,0-1.78.85-1.78,2.54s.39,2.52,1.63,2.52c.59,0,.9-.35,1.09-.7v.65h.99Zm-1.61-.63c-.92,0-1.07-.59-1.07-1.84s.15-1.86,1.04-1.86c.16,0,.38.02.64.06v3.48c-.2.12-.45.15-.61.15Z"/><path class="cls-6" d="m124.63,41.69c.06-.46.21-1.12.39-1.96.11-.42.23-.88.37-1.38.16-.49.3-1.04.52-1.59.39-1.13.94-2.37,1.6-3.69,1.34-2.62,3.34-5.48,6.04-7.99,2.68-2.52,6.04-4.68,9.71-6.08,3.66-1.43,7.6-2.08,11.28-2.02,3.69.04,7.09.78,9.86,1.79,1.39.5,2.61,1.07,3.68,1.62.26.14.52.28.77.41.24.14.47.28.7.41.45.25.84.53,1.21.75.71.48,1.26.87,1.63,1.16.37.28.56.43.56.43l.14-.18s-.17-.18-.49-.52c-.32-.34-.81-.83-1.49-1.41-.68-.57-1.51-1.27-2.56-1.93-1.04-.68-2.25-1.41-3.67-2.04-.71-.31-1.45-.63-2.24-.91-.39-.16-.8-.27-1.22-.39-.41-.13-.84-.24-1.27-.35-1.73-.43-3.61-.76-5.57-.83l-.37-.02h-.09s-.02,0-.02,0c-.03,0,.03,0-.07,0h-.04s-.17,0-.17,0c-.23,0-.47,0-.7,0-.45-.02-.99.01-1.51.03-.53.01-1.03.06-1.54.1-.51.04-1.02.14-1.53.21-2.04.33-4.1.86-6.07,1.61-1.96.78-3.84,1.76-5.58,2.89-.88.55-1.7,1.18-2.48,1.83-.78.65-1.52,1.33-2.21,2.02-1.4,1.38-2.56,2.89-3.55,4.38-.24.38-.47.75-.7,1.12-.22.37-.43.75-.63,1.12-.38.75-.73,1.48-1.02,2.19-.61,1.42-1.03,2.77-1.31,3.99-.08.3-.15.59-.2.88-.06.28-.11.56-.16.82-.08.53-.14,1.02-.2,1.46-.09.88-.12,1.57-.12,2.05,0,.47,0,.72,0,.72l.22.03s.04-.24.12-.7Z"/><path class="cls-1" d="m175.9,33.92c.39.56.75,1.11,1.08,1.64.17.26.33.53.48.79.14.26.3.51.42.76.13.25.25.49.38.73.11.24.22.47.33.69.23.44.39.86.56,1.24.3.76.56,1.36.69,1.8.15.43.24.65.24.65l.23-.04s-.04-.23-.12-.67c-.07-.44-.21-1.09-.42-1.9-.11-.4-.22-.85-.39-1.33-.08-.24-.15-.49-.25-.75-.1-.26-.19-.52-.3-.79-.43-1.09-.98-2.29-1.7-3.53-1.44-2.49-3.58-5.15-6.39-7.4-1.4-1.13-2.98-2.14-4.67-2.99-1.69-.86-3.49-1.54-5.36-2.01-1.86-.47-3.78-.74-5.66-.8h-.71c-.12-.02-.23-.02-.36-.02h-.35c-.46.03-.92.03-1.39.07-.46.04-.92.08-1.38.13-.45.07-.9.13-1.35.2-1.77.31-3.45.79-4.99,1.37-.38.16-.77.29-1.13.46-.36.17-.72.33-1.07.49-.69.36-1.36.69-1.97,1.07-.62.36-1.19.75-1.73,1.12-.27.18-.52.39-.77.57-.24.19-.49.36-.71.56-.9.75-1.63,1.45-2.22,2.05-.29.31-.54.58-.76.82-.21.25-.39.46-.53.63-.29.34-.44.53-.44.53l.18.14s.18-.16.53-.45c.17-.15.38-.33.62-.54.26-.2.55-.43.86-.69.65-.51,1.46-1.08,2.4-1.71.96-.6,2.05-1.24,3.29-1.83,1.23-.59,2.6-1.13,4.08-1.59,1.48-.45,3.06-.77,4.71-1.01.41-.04.83-.09,1.25-.13.4-.02.81-.04,1.22-.06.19-.02.44,0,.67,0,.23,0,.46,0,.7,0,.12,0,.23,0,.35,0h.27s.65.03.65.03c1.73.08,3.48.36,5.18.81.86.2,1.69.46,2.52.75.82.31,1.63.63,2.41,1.01l.58.29.57.31c.39.19.75.41,1.13.62.37.21.72.45,1.08.67.34.24.7.47,1.03.72,1.33,1,2.57,2.04,3.64,3.15.54.55,1.03,1.12,1.5,1.68.47.56.91,1.12,1.3,1.68Z"/><path class="cls-1" d="m140.56,45.16c-3.63,0-4.93,2.13-4.93,6.41s1.15,6.36,4.78,6.36,4.96-2.08,4.96-6.36-1.15-6.41-4.81-6.41Zm-.07,11.04c-1.83,0-2.25-1.53-2.25-4.66s.43-4.66,2.25-4.66,2.28,1.55,2.28,4.66-.43,4.66-2.28,4.66Z"/><path class="cls-1" d="m153.73,45.16c-1.4,0-2.65.35-3.28,1.63v-1.5h-2.53v12.52h2.53v-10.49c.58-.35,1.3-.43,1.8-.43,1.88,0,2.43.83,2.43,2.43v8.49h2.53v-9.29c0-2.25-1.08-3.36-3.48-3.36Z"/><path class="cls-1" d="m162.92,54.6v-7.66h3.61v-1.65h-3.61v-2.96l-2.53.4v2.55h-1.23v1.65h1.23v7.71c0,2.1.95,3.28,3.23,3.28,2.4,0,3.13-.83,3.18-2.28-.65.48-1.38.55-2.05.55-1.08,0-1.83-.45-1.83-1.6Z"/><rect class="cls-1" x="168.48" y="45.28" width="2.5" height="12.52"/><path class="cls-1" d="m169.73,40.27c-1,0-1.4.38-1.4,1.28,0,.98.4,1.35,1.4,1.35s1.45-.38,1.45-1.35c0-.9-.43-1.28-1.45-1.28Z"/><path class="cls-1" d="m178.67,50.94c-1.63-.95-2.5-1.5-2.5-2.48,0-.88.73-1.58,2.3-1.58.65,0,1.23.05,2.15.2l.28-1.63c-.95-.2-1.83-.3-2.81-.3-3.18,0-4.53,1.65-4.53,3.43,0,1.3.68,2.28,2.58,3.38,1.68.98,2.43,1.63,2.43,2.6,0,.88-.83,1.63-2.65,1.63-.63,0-1.25-.05-2.2-.2l-.28,1.63c.9.2,1.8.3,2.85.3,3.38,0,4.86-1.7,4.86-3.51,0-1.33-.63-2.38-2.48-3.48Z"/><path class="cls-1" d="m143.83,37c-1.22,0-1.54.38-1.54.99.35-.21.83-.31,1.24-.31.74,0,1.05.29,1.05.88v.36c-1.64.17-2.51.85-2.51,1.88,0,.77.45,1.26,1.3,1.26.51,0,.97-.18,1.21-.65v.6h1v-3.68c0-.86-.54-1.33-1.76-1.33Zm.75,4.22c-.23.13-.5.16-.7.16-.64,0-.89-.3-.89-.77,0-.66.57-1.03,1.6-1.14v1.76Z"/><polygon class="cls-1" points="145.48 34.97 144.34 34.97 143.34 36.42 144.06 36.42 145.48 34.97"/><path class="cls-1" d="m149.76,41.15c-.3.19-.65.23-.91.23-.97,0-1.21-.59-1.21-1.84s.24-1.86,1.1-1.86c.23,0,.5.03.84.08l.11-.64c-.42-.08-.78-.12-1.17-.12-1.42,0-1.92.85-1.92,2.54s.44,2.52,1.87,2.52c.93,0,1.27-.34,1.29-.91Z"/><rect class="cls-1" x="150.63" y="37.05" width=".99" height="4.96"/><path class="cls-1" d="m151.12,35.07c-.4,0-.56.15-.56.51,0,.39.16.54.56.54s.57-.15.57-.54c0-.36-.17-.51-.57-.51Z"/><path class="cls-1" d="m152.68,40.8c0,.77.45,1.26,1.3,1.26.51,0,.97-.18,1.21-.65v.6h1v-3.68c0-.86-.54-1.33-1.76-1.33s-1.54.38-1.54.99c.35-.21.83-.31,1.24-.31.74,0,1.05.29,1.05.88v.36c-1.64.17-2.51.85-2.51,1.88Zm2.51.42c-.23.13-.5.16-.7.16-.64,0-.89-.3-.89-.77,0-.66.57-1.03,1.6-1.14v1.76Z"/><path class="cls-1" d="m129.26,45.16c-1.45,0-2.25.88-2.71,1.73v-1.6h-2.53v17.78h2.53v-5.43c.78.2,1.65.3,2.35.3,3.38,0,4.46-2.15,4.46-6.41s-.95-6.36-4.11-6.36Zm-1.1,11.04c-.43,0-.95-.03-1.6-.13v-8.82c.48-.3,1.1-.38,1.53-.38,2.3,0,2.7,1.48,2.7,4.63s-.4,4.68-2.63,4.68Z"/><path class="cls-4" d="m262.04,38.97c-.89,0-1.4.76-1.4,1.45v.32c0,.67.48,1.45,1.45,1.45.82,0,1.35-.63,1.35-1.6s-.54-1.62-1.39-1.62Z"/><path class="cls-4" d="m236.08,34.53c-.86,0-1.14.74-1.14,1.14,0,.94.43,2.24,1.2,3.71.67-1.17,1.09-2.58,1.09-3.71,0-.42-.28-1.14-1.14-1.14Z"/><path class="cls-4" d="m293.48,38.97c-.82,0-1.36.63-1.36,1.6s.54,1.62,1.4,1.62,1.4-.79,1.4-1.46v-.32s0,.01,0,.01c0-.7-.49-1.45-1.45-1.45Z"/><path class="cls-4" d="m300.49,38.97c-.92,0-1.4.79-1.4,1.46v.31c0,.7.49,1.45,1.45,1.45.82,0,1.35-.63,1.35-1.6s-.53-1.62-1.39-1.62Z"/><path class="cls-4" d="m268.22,38.97c-.82,0-1.36.63-1.36,1.6s.54,1.62,1.4,1.62,1.4-.79,1.4-1.46v-.32s0,.01,0,.01c0-.7-.49-1.45-1.45-1.45Z"/><path class="cls-4" d="m288.11,36.4c-.69,0-.85.62-.85,1.13,0,.9.36,1.63.85,2.45.49-.82.85-1.54.85-2.45,0-.52-.16-1.13-.85-1.13Z"/><path class="cls-5" d="m236.08,32.96c-1.07,0-1.71.47-2.07.86-.45.5-.69,1.17-.69,1.89,0,1.03.35,2.67,1.74,5.11-.64.64-1.33.99-1.99.99-1.27,0-1.92-.83-1.92-2.47v-1.53h-1.63v1.53c0,1.31.34,2.34,1,3.06.63.68,1.51,1.04,2.54,1.04s2.03-.46,2.86-1.2c.22.34.46.69.71,1.05h2.01c-.6-.8-1.14-1.58-1.61-2.32,1.12-1.58,1.78-3.63,1.78-5.26s-1.13-2.75-2.75-2.75Zm.05,6.43c-.77-1.47-1.2-2.77-1.2-3.71,0-.41.28-1.14,1.14-1.14s1.14.72,1.14,1.14c0,1.13-.42,2.54-1.09,3.71Z"/><circle class="cls-5" cx="230.34" cy="35.68" r="1.14"/><path class="cls-5" d="m256.09,37.81c-.98,0-1.53.55-1.78,1.24-.28-.76-.93-1.24-1.9-1.24s-1.49.53-1.76,1.2h-.01c0-.24-.07-.83-.17-1.18l-1.08.05v5.43h1.4v-2.82c0-.67.37-1.46,1.22-1.46.69,0,1.05.45,1.05,1.15v3.13h1.4v-2.82c0-.67.38-1.46,1.23-1.46.69,0,1.05.45,1.05,1.15v3.13h1.4v-3.31c0-1.26-.74-2.17-2.05-2.17Z"/><path class="cls-5" d="m262.39,37.8c-1,0-1.6.51-1.89,1.16h-.02c0-.17-.07-.79-.17-1.14l-1.08.05v7.17h1.4v-2.49c.32.47.89.82,1.68.82,1.47,0,2.54-1.05,2.54-2.77s-.98-2.79-2.46-2.79Zm-.31,4.39c-.97,0-1.45-.78-1.45-1.45v-.32c0-.69.52-1.45,1.4-1.45s1.39.64,1.39,1.62-.53,1.6-1.35,1.6Z"/><path class="cls-5" d="m271.38,42.2c-.23,0-.31-.09-.31-.37v-3.97h-1.08c-.1.35-.18.92-.17,1.09h-.02c-.29-.68-.9-1.16-1.85-1.16-1.52,0-2.5,1.14-2.5,2.77,0,1.75,1.07,2.79,2.5,2.79.94,0,1.51-.44,1.8-1.03.03.7.44,1.02,1.2,1.02.38,0,.69-.08.69-.08l-.06-1.09c-.06.01-.13.02-.2.02Zm-1.71-1.59v.11c0,.67-.51,1.46-1.4,1.46s-1.4-.64-1.4-1.62.54-1.6,1.36-1.6c.95,0,1.45.75,1.45,1.45h.01s-.01.2-.01.2Z"/><path class="cls-5" d="m275.09,42.21c-1,0-1.53-.67-1.53-1.66s.54-1.61,1.36-1.61c.67,0,1.02.43,1.02.95,0,.12-.01.22-.02.25l1.25-.08s.03-.15.03-.38c0-1.06-.86-1.9-2.28-1.9-1.66,0-2.79,1.15-2.79,2.81s1.09,2.76,2.87,2.76c1.14,0,1.94-.44,2.33-.93l-.71-.87c-.17.21-.64.66-1.54.66Z"/><path class="cls-5" d="m280.76,42.18c-.64,0-.93-.36-.93-1.13v-2.1h1.97v-1.08h-1.97v-1.61l-1.37.06v1.55h-.87v1.08h.84v2.15c0,1.51.69,2.27,2.1,2.27.99,0,1.55-.38,1.55-.38l-.4-1.1s-.33.3-.92.3Z"/><path class="cls-5" d="m296.64,42.2c-.23,0-.31-.09-.31-.37v-3.97h-1.08c-.1.35-.18.92-.17,1.09h-.02c-.29-.68-.9-1.16-1.85-1.16-1.52,0-2.49,1.14-2.49,2.77,0,1.75,1.07,2.79,2.49,2.79.94,0,1.51-.44,1.8-1.03.03.7.44,1.02,1.2,1.02.38,0,.69-.08.69-.08l-.06-1.09c-.06.01-.13.02-.2.02Zm-1.71-1.59v.11c0,.67-.51,1.46-1.4,1.46s-1.4-.64-1.4-1.62.54-1.6,1.36-1.6c.95,0,1.45.75,1.45,1.45h.01s-.01.2-.01.2Z"/><path class="cls-5" d="m300.85,37.8c-.9,0-1.45.4-1.76.91v-2.93h-1.4v7.51h1.06c.08-.35.14-.87.14-1.09h.01c.3.67.92,1.16,1.87,1.16,1.48,0,2.54-1.08,2.54-2.77s-1.06-2.79-2.46-2.79Zm-.31,4.39c-.95,0-1.45-.75-1.45-1.45v-.31c0-.67.48-1.46,1.4-1.46.86,0,1.39.63,1.39,1.62s-.53,1.6-1.35,1.6Z"/><polygon class="cls-5" points="246.82 43.29 248.23 43.29 248.23 37.82 246.82 37.87 246.82 43.29"/><path class="cls-5" d="m247.54,35.31c-.52,0-.92.38-.92.89s.4.89.92.89.92-.37.92-.89-.41-.89-.92-.89Z"/><path class="cls-5" d="m290.38,37.53c0-1.28-.66-2.23-2.27-2.23s-2.27.95-2.27,2.23c0,1.15.74,2.45,1.48,3.59-.4.54-1.6,1.96-1.75,2.17h1.69c.28-.35.59-.75.86-1.11.27.36.57.76.86,1.11h1.69c-.16-.21-1.36-1.64-1.75-2.17.75-1.14,1.48-2.44,1.48-3.59Zm-3.12,0c0-.52.16-1.13.85-1.13s.85.62.85,1.13c0,.9-.36,1.63-.85,2.45-.49-.82-.85-1.54-.85-2.45Z"/></g></svg>